<svg class="fill-current" role="img" title="Groundwater Relief Logo" description="Groundwater Relief Homepage logo" width="124" height="124" xmlns="http://www.w3.org/2000/svg">
  <rect width="124" height="124" style="rgba(255,255,255,var(--tw-text-opacity))"/>
  <path d="M0 40.231V83.77h124V40.23H0zM29.14 73.85h-3.858l-4.34-14.398-4.34 14.398h-3.858l-6.337-23.7h4.822L14.88 65.1l4.34-14.949h3.444l4.34 14.949 3.72-14.949h4.823L29.14 73.85zm23.147 0l-1.378-4.202h-8.473l-1.447 4.202h-4.822l8.61-23.698h3.652l8.68 23.698h-4.822zm21.837-19.565h-6.2V73.85H63.31V54.284h-6.2v-4.133h17.015v4.133zm20.185 0H83.356v5.58h9.369v4.134h-9.37v5.786H94.31v4.134H78.67V50.15h15.64v4.133zM112.22 73.85l-4.616-9.438h-3.306v9.438h-4.616v-23.7h9.3c4.822 0 7.716 3.307 7.716 7.233 0 3.307-1.998 5.374-4.34 6.2l5.304 10.196h-5.442v.069zM46.707 57.11l2.893 8.68h-5.924l3.03-8.68zm65.306.276c0 1.86-1.309 3.1-3.375 3.1h-4.34v-6.27h4.34c2.066.07 3.375 1.378 3.375 3.17z" fill="#F9F9F9" fill-opacity=".75"></path>
  <path d="M0 87.764V124h124V87.764H0zm19.151 27.832l-4.064-8.198h-3.72v8.198H8.404V96.169h7.51c3.72 0 6.062 2.342 6.062 5.649 0 2.755-1.723 4.546-3.858 5.166l4.478 8.612H19.15zm23.491-16.81h-9.438v5.65h8.06v2.617h-8.06v5.856h9.507v2.618h-12.4V96.1h12.4v2.687h-.069zm20.322 16.81h-12.33V96.169h2.962v16.809h9.368v2.618zm10.196 0h-2.893V96.169h2.962v19.427h-.069zm21.493-16.81h-9.506v5.65h8.06v2.617h-8.06v5.856h9.506v2.618h-12.4V96.1h12.4v2.687zm20.943 0h-9.507v5.925h8.06v2.618h-8.06v8.198h-2.962V96.1h12.4v2.687h.069zm-99.89 6.132h-4.34v-6.062h4.34c1.998 0 3.307 1.171 3.307 3.031s-1.309 3.031-3.306 3.031zM0 0v36.236h124V0H0zm22.113 20.322c0 2.48-.482 4.134-1.722 5.511-1.447 1.585-3.307 2.205-5.373 2.205-1.998 0-3.79-.758-5.098-2.067-1.929-1.929-1.86-4.064-1.86-7.784 0-3.72 0-5.925 1.86-7.785 1.309-1.309 3.031-2.066 5.098-2.066 4.133 0 6.544 2.686 7.095 6.062h-2.962c-.482-2.136-1.929-3.376-4.064-3.376a4.11 4.11 0 00-2.894 1.171c-.964.896-1.17 1.998-1.17 5.925 0 3.926.206 5.029 1.17 6.062.69.758 1.723 1.171 2.894 1.171 1.309 0 2.41-.482 3.169-1.378.688-.826.964-1.79.964-3.03V19.84h-4.133v-2.48h7.095v2.962h-.069zm16.051 7.51l-4.064-8.2h-3.72v8.198h-2.962V8.404h7.509c3.72 0 6.062 2.343 6.062 5.65 0 2.755-1.722 4.546-3.858 5.166l4.478 8.611h-3.445zm19.29-1.93c-1.31 1.31-3.032 2.067-5.167 2.067-2.067 0-3.79-.758-5.098-2.067-1.929-1.929-1.86-4.064-1.86-7.784 0-3.72 0-5.925 1.86-7.785 1.309-1.309 3.031-2.066 5.098-2.066 2.066 0 3.789.757 5.166 2.066 1.93 1.93 1.86 4.065 1.86 7.785 0 3.72 0 5.855-1.86 7.784zm20.528-4.615c0 3.995-3.03 6.75-6.958 6.75-3.926 0-6.957-2.686-6.957-6.75V8.404h2.962V21.15c0 2.618 1.584 4.202 3.995 4.202 2.412 0 4.065-1.584 4.065-4.202V8.404h2.962v12.883h-.069zm19.565 6.544H94.86l-8.956-13.709v13.71h-2.962V8.403h2.687l8.955 13.64V8.404h2.963v19.427zm16.464-1.86c-1.24 1.24-3.031 1.86-5.029 1.86h-6.82V8.404h6.82c1.998 0 3.789.62 5.029 1.86 2.136 2.136 1.998 4.96 1.998 7.785-.069 2.755.069 5.855-1.998 7.922zm-79.222-8.818h-4.34v-6.13h4.34c1.998 0 3.307 1.17 3.307 3.03 0 1.93-1.378 3.1-3.307 3.1zm20.391-5.097c.964 1.033 1.171 2.135 1.171 6.062 0 3.926-.207 5.029-1.171 6.062-.689.758-1.722 1.171-2.893 1.171a4.11 4.11 0 01-2.894-1.171c-.964-1.102-1.17-2.136-1.17-6.062 0-3.927.206-5.03 1.17-6.062.69-.758 1.723-1.172 2.894-1.172a4.11 4.11 0 012.893 1.172zm56.764.275c1.034 1.102 1.034 2.962 1.034 5.649s0 4.753-1.034 5.924c-.826.896-1.928 1.31-3.306 1.31h-3.582V11.021h3.582c1.378 0 2.48.414 3.306 1.31z" fill="#F9F9F9"></path>
</svg>